<svg width="126" height="56" viewBox="0 0 126 56" fill="none" xmlns="http://www.w3.org/2000/svg">
<mask id="mask0_4495_40374" style="mask-type:alpha" maskUnits="userSpaceOnUse" x="0" y="0" width="126" height="56">
<rect width="126" height="56" fill="url(#paint0_linear_4495_40374)"/>
</mask>
<g mask="url(#mask0_4495_40374)">
<path opacity="0.1" d="M4.53409 49.2414L0 56H126V0L124.21 9.65517H121.824C121.188 11.2644 119.867 14.4828 119.676 14.4828C119.485 14.4828 118.244 16.4138 117.648 17.3793L112.517 20.2759L109.534 24.1379L104.761 20.2759L102.256 17.3793L98.6761 24.1379H94.9773L91.875 17.3793C90.6818 16.4138 88.2477 14.4828 88.0568 14.4828C87.8659 14.4828 86.3068 12.5517 85.5511 11.5862H83.642L79.108 14.4828L75.1705 17.3793L73.3807 24.1379L68.0114 27.0345L65.267 29.931L62.1648 34.7586L59.1818 41.0948H57.8693L54.2898 41.6983L50.8295 34.7586L47.8466 29.931H46.0568L42.9545 27.0345L38.5398 29.931H34.3636L30.1875 34.7586L26.0114 40.5517L22.9091 46.3448L19.5682 49.2414L15.0341 46.3448L11.4545 49.2414L7.875 52.1379L4.53409 49.2414Z" fill="#079455"/>
</g>
<defs>
<linearGradient id="paint0_linear_4495_40374" x1="63" y1="0" x2="63" y2="56" gradientUnits="userSpaceOnUse">
<stop/>
<stop offset="1" stop-opacity="0"/>
</linearGradient>
</defs>
</svg>
