<svg width="18" height="18" viewBox="0 0 18 18" fill="none" xmlns="http://www.w3.org/2000/svg">
<path d="M7.5 2.99982L6 4.49982M12.75 14.2498V15.7498M1.5 8.99982H16.5M5.25 14.2498V15.7498M6.75 3.74985L5.71575 2.7156C5.49886 2.4977 5.22347 2.34732 4.92291 2.28266C4.62235 2.21799 4.30948 2.24181 4.02217 2.35123C3.73486 2.46064 3.48541 2.65098 3.304 2.89919C3.12259 3.14741 3.017 3.44288 3 3.74985V12.7499C3 13.1477 3.15804 13.5292 3.43934 13.8105C3.72064 14.0918 4.10218 14.2499 4.5 14.2499H13.5C13.8978 14.2499 14.2794 14.0918 14.5607 13.8105C14.842 13.5292 15 13.1477 15 12.7499V8.99985" stroke="#071028" stroke-width="1.25" stroke-linecap="round" stroke-linejoin="round"/>
</svg>
