<svg width="18" height="18" viewBox="0 0 18 18" fill="none" xmlns="http://www.w3.org/2000/svg">
<g clip-path="url(#clip0_4495_29241)">
<path d="M1.5 5.25L4.8075 1.9425C4.94704 1.80212 5.11299 1.69075 5.29577 1.61481C5.47856 1.53886 5.67457 1.49984 5.8725 1.5H12.1275C12.3254 1.49984 12.5214 1.53886 12.7042 1.61481C12.887 1.69075 13.053 1.80212 13.1925 1.9425L16.5 5.25M1.5 5.25H16.5M1.5 5.25V7.5C1.5 7.89782 1.65804 8.27936 1.93934 8.56066C2.22064 8.84196 2.60218 9 3 9M16.5 5.25V7.5C16.5 7.89782 16.342 8.27936 16.0607 8.56066C15.7794 8.84196 15.3978 9 15 9M3 9V15C3 15.3978 3.15804 15.7794 3.43934 16.0607C3.72064 16.342 4.10218 16.5 4.5 16.5H13.5C13.8978 16.5 14.2794 16.342 14.5607 16.0607C14.842 15.7794 15 15.3978 15 15V9M3 9C3.4382 8.97588 3.8567 8.81006 4.1925 8.5275C4.28199 8.46283 4.38959 8.42802 4.5 8.42802C4.61041 8.42802 4.71801 8.46283 4.8075 8.5275C5.1433 8.81006 5.5618 8.97588 6 9C6.4382 8.97588 6.8567 8.81006 7.1925 8.5275C7.28199 8.46283 7.38959 8.42802 7.5 8.42802C7.61041 8.42802 7.71801 8.46283 7.8075 8.5275C8.1433 8.81006 8.5618 8.97588 9 9C9.4382 8.97588 9.8567 8.81006 10.1925 8.5275C10.282 8.46283 10.3896 8.42802 10.5 8.42802C10.6104 8.42802 10.718 8.46283 10.8075 8.5275C11.1433 8.81006 11.5618 8.97588 12 9C12.4382 8.97588 12.8567 8.81006 13.1925 8.5275C13.282 8.46283 13.3896 8.42802 13.5 8.42802C13.6104 8.42802 13.718 8.46283 13.8075 8.5275C14.1433 8.81006 14.5618 8.97588 15 9M11.25 16.5V13.5C11.25 13.1022 11.092 12.7206 10.8107 12.4393C10.5294 12.158 10.1478 12 9.75 12H8.25C7.85218 12 7.47064 12.158 7.18934 12.4393C6.90804 12.7206 6.75 13.1022 6.75 13.5V16.5" stroke="#071028" stroke-width="1.25" stroke-linecap="round" stroke-linejoin="round"/>
</g>
<defs>
<clipPath id="clip0_4495_29241">
<rect width="18" height="18" fill="white"/>
</clipPath>
</defs>
</svg>
