<svg width="128" height="58" viewBox="0 0 128 58" fill="none" xmlns="http://www.w3.org/2000/svg">
<path d="M1.00012 57L5.53421 50.2414L8.87512 53.1379L12.4547 50.2414L16.0342 47.3448L20.5683 50.2414L23.9092 47.3448L27.0115 41.5517L31.1876 35.7586L35.3638 30.931H39.5399L43.9547 28.0345L47.0569 30.931H48.8467L51.8297 35.7586L55.2899 42.6983L58.8694 42.0948H60.1819L63.1649 35.7586L66.2672 30.931L69.0115 28.0345L74.3808 25.1379L76.1706 18.3793L80.1081 15.4828L84.6422 12.5862H86.5513C87.3069 13.5517 88.866 15.4828 89.0569 15.4828C89.2478 15.4828 91.6819 17.4138 92.8751 18.3793L95.9774 25.1379H99.6763L103.256 18.3793L105.761 21.2759L110.534 25.1379L113.517 21.2759L118.648 18.3793C119.244 17.4138 120.485 15.4828 120.676 15.4828C120.867 15.4828 122.188 12.2644 122.824 10.6552H125.21L127 1" stroke="#1CA715" stroke-width="2" stroke-linecap="round" stroke-linejoin="round"/>
</svg>
