<svg width="30" height="36" viewBox="0 0 30 36" fill="none" xmlns="http://www.w3.org/2000/svg">
<path fill-rule="evenodd" clip-rule="evenodd" d="M10.2859 3C8.59365 3 6.97073 3.67225 5.77411 4.86887L0 10.6429V13.2859C0 15.1532 0.80208 16.8331 2.08051 18C0.80208 19.1668 0 20.8468 0 22.714V25.357L5.77411 31.1311C6.97073 32.3278 8.59365 33 10.2859 33C12.1532 33 13.8332 32.1979 15 30.9195C16.1668 32.1979 17.8468 33 19.7141 33C21.4064 33 23.0293 32.3278 24.2259 31.1311L30 25.357V22.714C30 20.8468 29.198 19.1668 27.9195 18C29.198 16.8331 30 15.1532 30 13.2859V10.6429L24.2259 4.86887C23.0293 3.67225 21.4064 3 19.7141 3C17.8468 3 16.1668 3.80208 15 5.08051C13.8332 3.80208 12.1532 3 10.2859 3ZM19.3191 18C19.2472 17.9344 19.1766 17.8669 19.1075 17.7978L15 13.6903L10.8926 17.7978C10.8234 17.8669 10.7528 17.9344 10.6809 18C10.7528 18.0656 10.8234 18.133 10.8926 18.2022L15 22.3096L19.1075 18.2022C19.1766 18.133 19.2472 18.0656 19.3191 18ZM16.6667 25.357V26.6193C16.6667 28.3023 18.0311 29.6667 19.7141 29.6667C20.5223 29.6667 21.2974 29.3456 21.8689 28.7741L26.6667 23.9763V22.714C26.6667 21.031 25.3023 19.6666 23.6193 19.6666C22.8111 19.6666 22.036 19.9877 21.4645 20.5592L16.6667 25.357ZM13.3333 25.357L8.53553 20.5592C7.96403 19.9877 7.18893 19.6666 6.38071 19.6666C4.69769 19.6666 3.33333 21.031 3.33333 22.714V23.9763L8.13113 28.7741C8.70263 29.3456 9.47775 29.6667 10.2859 29.6667C11.9689 29.6667 13.3333 28.3023 13.3333 26.6193V25.357ZM13.3333 9.38071V10.6429L8.53553 15.4408C7.96403 16.0123 7.18893 16.3333 6.38071 16.3333C4.69769 16.3333 3.33333 14.9689 3.33333 13.2859V12.0237L8.13113 7.22589C8.70263 6.6544 9.47775 6.33334 10.2859 6.33334C11.9689 6.33334 13.3333 7.69769 13.3333 9.38071ZM21.4645 15.4408L16.6667 10.6429V9.38071C16.6667 7.69769 18.0311 6.33334 19.7141 6.33334C20.5223 6.33334 21.2974 6.6544 21.8689 7.22589L26.6667 12.0237V13.2859C26.6667 14.9689 25.3023 16.3333 23.6193 16.3333C22.8111 16.3333 22.036 16.0123 21.4645 15.4408Z" fill="#FF4405"/>
</svg>
