<svg width="33" height="36" viewBox="0 0 33 36" fill="none" xmlns="http://www.w3.org/2000/svg">
<path d="M23.1 8.10059H0L3.3 14.7005H23.1C26.7451 14.7005 29.7 17.6554 29.7 21.3005C29.7 24.9456 26.7451 27.9005 23.1 27.9005C28.5676 27.9005 33 23.4681 33 18.0005C33 12.5329 28.5676 8.10059 23.1 8.10059Z" fill="#099250"/>
<path opacity="0.3" d="M15.5871 26.0761C14.49 23.8819 16.0856 21.3003 18.5387 21.3003H23.0992C24.9218 21.3003 26.3992 22.7777 26.3992 24.6003C26.3992 26.4228 24.9218 27.9003 23.0992 27.9003H18.5387C17.2888 27.9003 16.1461 27.1941 15.5871 26.0761Z" fill="#099250"/>
<path opacity="0.6" d="M23.1016 14.6997H6.60156L9.90156 21.2997H23.1016C24.9241 21.2997 26.4016 22.7771 26.4016 24.5996C26.4016 26.4222 24.9241 27.8996 23.1016 27.8996C26.7466 27.8996 29.7016 24.9447 29.7016 21.2997C29.7016 17.6546 26.7466 14.6997 23.1016 14.6997Z" fill="#099250"/>
</svg>
