<svg width="18" height="18" viewBox="0 0 18 18" fill="none" xmlns="http://www.w3.org/2000/svg">
<g clip-path="url(#clip0_4495_29223)">
<path d="M10.5 16.5H5.1M5.1 16.5C3.83988 16.5 3.20982 16.5 2.72852 16.2548C2.30516 16.039 1.96095 15.6948 1.74524 15.2715C1.5 14.7902 1.5 14.1601 1.5 12.9M5.1 16.5H5.4C6.66012 16.5 7.29018 16.5 7.77148 16.2548C8.19484 16.039 8.53905 15.6948 8.75476 15.2715C9 14.7902 9 14.1601 9 12.9V12.6C9 11.3399 9 10.7098 8.75476 10.2285C8.53905 9.80516 8.19484 9.46095 7.77148 9.24524C7.29018 9 6.66012 9 5.4 9H5.1C3.83988 9 3.20982 9 2.72852 9.24524C2.30516 9.46095 1.96095 9.80516 1.74524 10.2285C1.5 10.7098 1.5 11.3399 1.5 12.6V12.9M1.5 12.9V7.5M7.5 1.5H10.5M16.5 7.5V10.5M13.5 16.5C14.1975 16.5 14.5462 16.5 14.8323 16.4233C15.6088 16.2153 16.2153 15.6088 16.4233 14.8323C16.5 14.5462 16.5 14.1975 16.5 13.5M16.5 4.5C16.5 3.80252 16.5 3.45378 16.4233 3.16766C16.2153 2.3912 15.6088 1.78472 14.8323 1.57667C14.5462 1.5 14.1975 1.5 13.5 1.5M4.5 1.5C3.80252 1.5 3.45378 1.5 3.16766 1.57667C2.3912 1.78472 1.78472 2.3912 1.57667 3.16766C1.5 3.45378 1.5 3.80252 1.5 4.5" stroke="#071028" stroke-width="1.25" stroke-linecap="round" stroke-linejoin="round"/>
</g>
<defs>
<clipPath id="clip0_4495_29223">
<rect width="18" height="18" fill="white"/>
</clipPath>
</defs>
</svg>
