<svg width="19" height="21" viewBox="0 0 19 21" fill="none" xmlns="http://www.w3.org/2000/svg">
<g filter="url(#filter0_d_4495_40513)">
<path fill-rule="evenodd" clip-rule="evenodd" d="M5.20544 13.8481C4.92756 13.4719 4.58999 12.7027 3.98922 11.769C3.64872 11.2408 2.80432 10.2463 2.55286 9.74121C2.33466 9.29479 2.35814 9.09464 2.41 8.72472C2.50198 8.06662 3.1321 7.55418 3.8043 7.62334C4.31211 7.67469 4.74263 8.03413 5.1301 8.37366C5.36395 8.57801 5.65162 8.97517 5.8248 9.19943C5.98429 9.40483 6.02343 9.48971 6.19368 9.73283C6.41872 10.0545 6.48917 10.2138 6.40307 9.85963C6.3336 9.33986 6.2201 8.45226 6.05572 7.66735C5.93047 7.07213 5.90014 6.97886 5.78077 6.52196C5.65455 6.03572 5.58997 5.69514 5.47158 5.17956C5.38939 4.81488 5.24164 4.0698 5.20153 3.65062C5.14576 3.0774 5.1164 2.14265 5.45984 1.71299C5.72891 1.37661 6.34632 1.27496 6.72889 1.48245C7.22986 1.75386 7.51459 2.53352 7.64472 2.84476C7.87857 3.40436 8.02338 4.05093 8.1496 4.89976C8.31007 5.98018 8.60556 7.47977 8.61535 7.7952C8.63883 7.40851 8.54881 6.59427 8.61143 6.2233C8.66818 5.88691 8.93237 5.49603 9.26308 5.39019C9.54292 5.30112 9.8707 5.26863 10.1593 5.33256C10.4656 5.39962 10.7885 5.63436 10.9088 5.85548C11.263 6.50939 11.2699 7.8455 11.2846 7.77424C11.3687 7.38022 11.354 6.48633 11.5624 6.11431C11.6994 5.8691 12.0487 5.64798 12.2346 5.61235C12.5223 5.55786 12.8755 5.5411 13.1779 5.60397C13.4215 5.65532 13.7512 5.96551 13.8403 6.11431C14.0536 6.4748 14.1749 7.49444 14.2111 7.85179C14.2258 7.99955 14.2835 7.441 14.4978 7.08051C14.8951 6.41088 16.3011 6.28094 16.3549 7.75014C16.3794 8.43549 16.3745 8.40405 16.3745 8.86514C16.3745 9.40693 16.3627 9.73283 16.3353 10.1248C16.305 10.5439 16.2209 11.4913 16.0986 11.9503C16.0144 12.2657 15.7355 12.9751 15.4606 13.4006C15.4606 13.4006 14.4097 14.7105 14.2953 15.3005C14.1798 15.8894 14.218 15.8936 14.1955 16.3118C14.173 16.7288 14.3139 17.278 14.3139 17.278C14.3139 17.278 13.5291 17.3869 13.1064 17.3146C12.7239 17.2486 12.2503 16.4333 12.128 16.1839C11.9597 15.8402 11.6006 15.9062 11.4607 16.1598C11.2405 16.5612 10.767 17.2811 10.4323 17.3262C9.77873 17.4142 8.42259 17.3586 7.36097 17.3471C7.36097 17.3471 7.54199 16.2877 7.13886 15.924C6.84044 15.6526 6.32675 15.1024 6.01951 14.8132L5.20544 13.8481Z" fill="white"/>
<path fill-rule="evenodd" clip-rule="evenodd" d="M5.20544 13.8481C4.92756 13.4719 4.58999 12.7027 3.98922 11.769C3.64872 11.2408 2.80432 10.2463 2.55286 9.74121C2.33466 9.29479 2.35814 9.09464 2.41 8.72472C2.50198 8.06662 3.1321 7.55418 3.8043 7.62334C4.31211 7.67469 4.74263 8.03413 5.1301 8.37366C5.36395 8.57801 5.65162 8.97517 5.8248 9.19943C5.98429 9.40483 6.02343 9.48971 6.19368 9.73283C6.41872 10.0545 6.48917 10.2138 6.40307 9.85963C6.3336 9.33986 6.2201 8.45226 6.05572 7.66735C5.93047 7.07213 5.90014 6.97886 5.78077 6.52196C5.65455 6.03572 5.58997 5.69514 5.47158 5.17956C5.38939 4.81488 5.24164 4.0698 5.20153 3.65062C5.14576 3.0774 5.1164 2.14265 5.45984 1.71299C5.72891 1.37661 6.34632 1.27496 6.72889 1.48245C7.22986 1.75386 7.51459 2.53352 7.64472 2.84476C7.87857 3.40436 8.02338 4.05093 8.1496 4.89976C8.31007 5.98018 8.60556 7.47977 8.61535 7.7952C8.63883 7.40851 8.54881 6.59427 8.61143 6.2233C8.66818 5.88691 8.93237 5.49603 9.26308 5.39019C9.54292 5.30112 9.8707 5.26863 10.1593 5.33256C10.4656 5.39962 10.7885 5.63436 10.9088 5.85548C11.263 6.50939 11.2699 7.8455 11.2846 7.77424C11.3687 7.38022 11.354 6.48633 11.5624 6.11431C11.6994 5.8691 12.0487 5.64798 12.2346 5.61235C12.5223 5.55786 12.8755 5.5411 13.1779 5.60397C13.4215 5.65532 13.7512 5.96551 13.8403 6.11431C14.0536 6.4748 14.1749 7.49444 14.2111 7.85179C14.2258 7.99955 14.2835 7.441 14.4978 7.08051C14.8951 6.41088 16.3011 6.28094 16.3549 7.75014C16.3794 8.43549 16.3745 8.40405 16.3745 8.86514C16.3745 9.40693 16.3627 9.73283 16.3353 10.1248C16.305 10.5439 16.2209 11.4913 16.0986 11.9503C16.0144 12.2657 15.7355 12.9751 15.4606 13.4006C15.4606 13.4006 14.4097 14.7105 14.2953 15.3005C14.1798 15.8894 14.218 15.8936 14.1955 16.3118C14.173 16.7288 14.3139 17.278 14.3139 17.278C14.3139 17.278 13.5291 17.3869 13.1064 17.3146C12.7239 17.2486 12.2503 16.4333 12.128 16.1839C11.9597 15.8402 11.6006 15.9062 11.4607 16.1598C11.2405 16.5612 10.767 17.2811 10.4323 17.3262C9.77873 17.4142 8.42259 17.3586 7.36097 17.3471C7.36097 17.3471 7.54199 16.2877 7.13886 15.924C6.84044 15.6526 6.32675 15.1024 6.01951 14.8132L5.20544 13.8481Z" stroke="black" stroke-width="0.75" stroke-linecap="round" stroke-linejoin="round"/>
</g>
<defs>
<filter id="filter0_d_4495_40513" x="0" y="0" width="18.7499" height="20.75" filterUnits="userSpaceOnUse" color-interpolation-filters="sRGB">
<feFlood flood-opacity="0" result="BackgroundImageFix"/>
<feColorMatrix in="SourceAlpha" type="matrix" values="0 0 0 0 0 0 0 0 0 0 0 0 0 0 0 0 0 0 127 0" result="hardAlpha"/>
<feOffset dy="1"/>
<feGaussianBlur stdDeviation="1"/>
<feColorMatrix type="matrix" values="0 0 0 0 0 0 0 0 0 0 0 0 0 0 0 0 0 0 0.24 0"/>
<feBlend mode="normal" in2="BackgroundImageFix" result="effect1_dropShadow_4495_40513"/>
<feBlend mode="normal" in="SourceGraphic" in2="effect1_dropShadow_4495_40513" result="shape"/>
</filter>
</defs>
</svg>
